G04 #@! TF.GenerationSoftware,KiCad,Pcbnew,(5.1.0-0)*
G04 #@! TF.CreationDate,2019-04-12T14:29:56-04:00*
G04 #@! TF.ProjectId,pyControl_DSeries,7079436f-6e74-4726-9f6c-5f4453657269,rev?*
G04 #@! TF.SameCoordinates,Original*
G04 #@! TF.FileFunction,Soldermask,Top*
G04 #@! TF.FilePolarity,Negative*
%FSLAX46Y46*%
G04 Gerber Fmt 4.6, Leading zero omitted, Abs format (unit mm)*
G04 Created by KiCad (PCBNEW (5.1.0-0)) date 2019-04-12 14:29:56*
%MOMM*%
%LPD*%
G04 APERTURE LIST*
%ADD10C,1.901600*%
%ADD11C,1.701600*%
%ADD12R,0.761600X0.331600*%
%ADD13R,0.761600X0.451600*%
%ADD14O,2.601600X5.101600*%
%ADD15O,2.351600X4.601600*%
%ADD16C,0.100000*%
%ADD17C,1.351600*%
%ADD18C,3.301600*%
%ADD19C,1.501600*%
%ADD20C,2.032000*%
%ADD21R,0.501600X1.101600*%
%ADD22C,3.101600*%
%ADD23R,1.201600X1.201600*%
%ADD24R,6.501600X5.901600*%
%ADD25R,2.301600X1.301600*%
G04 APERTURE END LIST*
D10*
X68580000Y-99242000D03*
X68580000Y-90242000D03*
D11*
X62330000Y-97242000D03*
X74830000Y-97242000D03*
X74830000Y-92242000D03*
X62330000Y-92242000D03*
D12*
X123021000Y-97660000D03*
X120311000Y-97260000D03*
X123021000Y-97260000D03*
X120311000Y-96860000D03*
D13*
X123021000Y-103335000D03*
X120311000Y-103335000D03*
X123021000Y-94785000D03*
X120311000Y-94785000D03*
D12*
X120311000Y-102860000D03*
X123021000Y-102860000D03*
X120311000Y-102460000D03*
X123021000Y-102460000D03*
X120311000Y-102060000D03*
X123021000Y-102060000D03*
X120311000Y-101660000D03*
X123021000Y-101660000D03*
X120311000Y-101260000D03*
X123021000Y-101260000D03*
X120311000Y-100860000D03*
X123021000Y-100860000D03*
X120311000Y-100460000D03*
X123021000Y-100460000D03*
X120311000Y-100060000D03*
X123021000Y-100060000D03*
X120311000Y-99660000D03*
X123021000Y-99660000D03*
X120311000Y-99260000D03*
X123021000Y-99260000D03*
X120311000Y-98860000D03*
X123021000Y-98860000D03*
X120311000Y-98460000D03*
X123021000Y-98460000D03*
X120311000Y-98060000D03*
X123021000Y-98060000D03*
X120311000Y-97660000D03*
X123021000Y-96860000D03*
X120311000Y-96460000D03*
X123021000Y-96460000D03*
X120311000Y-96060000D03*
X123021000Y-96060000D03*
X120311000Y-95660000D03*
X123021000Y-95660000D03*
X120311000Y-95260000D03*
X123021000Y-95260000D03*
X135721000Y-95260000D03*
X133011000Y-100460000D03*
X135721000Y-100860000D03*
X133011000Y-100860000D03*
X135721000Y-101260000D03*
X133011000Y-101260000D03*
X135721000Y-101660000D03*
X133011000Y-101660000D03*
X135721000Y-102060000D03*
X133011000Y-102060000D03*
X135721000Y-102460000D03*
X133011000Y-102460000D03*
X135721000Y-102860000D03*
X133011000Y-102860000D03*
D13*
X133011000Y-94785000D03*
X135721000Y-94785000D03*
D12*
X133011000Y-97260000D03*
X135721000Y-97660000D03*
X135721000Y-96860000D03*
X133011000Y-97660000D03*
X135721000Y-98060000D03*
X133011000Y-98060000D03*
X135721000Y-98460000D03*
X133011000Y-98460000D03*
X135721000Y-98860000D03*
X133011000Y-98860000D03*
X135721000Y-99260000D03*
X133011000Y-99260000D03*
X135721000Y-99660000D03*
X133011000Y-99660000D03*
X135721000Y-100060000D03*
X133011000Y-100060000D03*
X135721000Y-100460000D03*
X133011000Y-95260000D03*
X135721000Y-95660000D03*
X133011000Y-95660000D03*
X135721000Y-96060000D03*
X133011000Y-96060000D03*
X135721000Y-96460000D03*
X133011000Y-96460000D03*
D13*
X133011000Y-103335000D03*
X135721000Y-103335000D03*
D12*
X133011000Y-96860000D03*
X135721000Y-97260000D03*
D14*
X128905000Y-116840000D03*
D15*
X134905000Y-116840000D03*
D16*
G36*
X126538976Y-118826502D02*
G01*
X126565217Y-118830394D01*
X126590950Y-118836840D01*
X126615927Y-118845777D01*
X126639908Y-118857119D01*
X126662662Y-118870757D01*
X126683969Y-118886560D01*
X126703625Y-118904375D01*
X126721440Y-118924031D01*
X126737243Y-118945338D01*
X126750881Y-118968092D01*
X126762223Y-118992073D01*
X126771160Y-119017050D01*
X126777606Y-119042783D01*
X126781498Y-119069024D01*
X126782800Y-119095520D01*
X126782800Y-119906480D01*
X126781498Y-119932976D01*
X126777606Y-119959217D01*
X126771160Y-119984950D01*
X126762223Y-120009927D01*
X126750881Y-120033908D01*
X126737243Y-120056662D01*
X126721440Y-120077969D01*
X126703625Y-120097625D01*
X126683969Y-120115440D01*
X126662662Y-120131243D01*
X126639908Y-120144881D01*
X126615927Y-120156223D01*
X126590950Y-120165160D01*
X126565217Y-120171606D01*
X126538976Y-120175498D01*
X126512480Y-120176800D01*
X125201520Y-120176800D01*
X125175024Y-120175498D01*
X125148783Y-120171606D01*
X125123050Y-120165160D01*
X125098073Y-120156223D01*
X125074092Y-120144881D01*
X125051338Y-120131243D01*
X125030031Y-120115440D01*
X125010375Y-120097625D01*
X124992560Y-120077969D01*
X124976757Y-120056662D01*
X124963119Y-120033908D01*
X124951777Y-120009927D01*
X124942840Y-119984950D01*
X124936394Y-119959217D01*
X124932502Y-119932976D01*
X124931200Y-119906480D01*
X124931200Y-119095520D01*
X124932502Y-119069024D01*
X124936394Y-119042783D01*
X124942840Y-119017050D01*
X124951777Y-118992073D01*
X124963119Y-118968092D01*
X124976757Y-118945338D01*
X124992560Y-118924031D01*
X125010375Y-118904375D01*
X125030031Y-118886560D01*
X125051338Y-118870757D01*
X125074092Y-118857119D01*
X125098073Y-118845777D01*
X125123050Y-118836840D01*
X125148783Y-118830394D01*
X125175024Y-118826502D01*
X125201520Y-118825200D01*
X126512480Y-118825200D01*
X126538976Y-118826502D01*
X126538976Y-118826502D01*
G37*
D17*
X125857000Y-119501000D03*
D16*
G36*
X126538976Y-121626502D02*
G01*
X126565217Y-121630394D01*
X126590950Y-121636840D01*
X126615927Y-121645777D01*
X126639908Y-121657119D01*
X126662662Y-121670757D01*
X126683969Y-121686560D01*
X126703625Y-121704375D01*
X126721440Y-121724031D01*
X126737243Y-121745338D01*
X126750881Y-121768092D01*
X126762223Y-121792073D01*
X126771160Y-121817050D01*
X126777606Y-121842783D01*
X126781498Y-121869024D01*
X126782800Y-121895520D01*
X126782800Y-122706480D01*
X126781498Y-122732976D01*
X126777606Y-122759217D01*
X126771160Y-122784950D01*
X126762223Y-122809927D01*
X126750881Y-122833908D01*
X126737243Y-122856662D01*
X126721440Y-122877969D01*
X126703625Y-122897625D01*
X126683969Y-122915440D01*
X126662662Y-122931243D01*
X126639908Y-122944881D01*
X126615927Y-122956223D01*
X126590950Y-122965160D01*
X126565217Y-122971606D01*
X126538976Y-122975498D01*
X126512480Y-122976800D01*
X125201520Y-122976800D01*
X125175024Y-122975498D01*
X125148783Y-122971606D01*
X125123050Y-122965160D01*
X125098073Y-122956223D01*
X125074092Y-122944881D01*
X125051338Y-122931243D01*
X125030031Y-122915440D01*
X125010375Y-122897625D01*
X124992560Y-122877969D01*
X124976757Y-122856662D01*
X124963119Y-122833908D01*
X124951777Y-122809927D01*
X124942840Y-122784950D01*
X124936394Y-122759217D01*
X124932502Y-122732976D01*
X124931200Y-122706480D01*
X124931200Y-121895520D01*
X124932502Y-121869024D01*
X124936394Y-121842783D01*
X124942840Y-121817050D01*
X124951777Y-121792073D01*
X124963119Y-121768092D01*
X124976757Y-121745338D01*
X124992560Y-121724031D01*
X125010375Y-121704375D01*
X125030031Y-121686560D01*
X125051338Y-121670757D01*
X125074092Y-121657119D01*
X125098073Y-121645777D01*
X125123050Y-121636840D01*
X125148783Y-121630394D01*
X125175024Y-121626502D01*
X125201520Y-121625200D01*
X126512480Y-121625200D01*
X126538976Y-121626502D01*
X126538976Y-121626502D01*
G37*
D17*
X125857000Y-122301000D03*
D16*
G36*
X108504976Y-113114502D02*
G01*
X108531217Y-113118394D01*
X108556950Y-113124840D01*
X108581927Y-113133777D01*
X108605908Y-113145119D01*
X108628662Y-113158757D01*
X108649969Y-113174560D01*
X108669625Y-113192375D01*
X108687440Y-113212031D01*
X108703243Y-113233338D01*
X108716881Y-113256092D01*
X108728223Y-113280073D01*
X108737160Y-113305050D01*
X108743606Y-113330783D01*
X108747498Y-113357024D01*
X108748800Y-113383520D01*
X108748800Y-114194480D01*
X108747498Y-114220976D01*
X108743606Y-114247217D01*
X108737160Y-114272950D01*
X108728223Y-114297927D01*
X108716881Y-114321908D01*
X108703243Y-114344662D01*
X108687440Y-114365969D01*
X108669625Y-114385625D01*
X108649969Y-114403440D01*
X108628662Y-114419243D01*
X108605908Y-114432881D01*
X108581927Y-114444223D01*
X108556950Y-114453160D01*
X108531217Y-114459606D01*
X108504976Y-114463498D01*
X108478480Y-114464800D01*
X107167520Y-114464800D01*
X107141024Y-114463498D01*
X107114783Y-114459606D01*
X107089050Y-114453160D01*
X107064073Y-114444223D01*
X107040092Y-114432881D01*
X107017338Y-114419243D01*
X106996031Y-114403440D01*
X106976375Y-114385625D01*
X106958560Y-114365969D01*
X106942757Y-114344662D01*
X106929119Y-114321908D01*
X106917777Y-114297927D01*
X106908840Y-114272950D01*
X106902394Y-114247217D01*
X106898502Y-114220976D01*
X106897200Y-114194480D01*
X106897200Y-113383520D01*
X106898502Y-113357024D01*
X106902394Y-113330783D01*
X106908840Y-113305050D01*
X106917777Y-113280073D01*
X106929119Y-113256092D01*
X106942757Y-113233338D01*
X106958560Y-113212031D01*
X106976375Y-113192375D01*
X106996031Y-113174560D01*
X107017338Y-113158757D01*
X107040092Y-113145119D01*
X107064073Y-113133777D01*
X107089050Y-113124840D01*
X107114783Y-113118394D01*
X107141024Y-113114502D01*
X107167520Y-113113200D01*
X108478480Y-113113200D01*
X108504976Y-113114502D01*
X108504976Y-113114502D01*
G37*
D17*
X107823000Y-113789000D03*
D16*
G36*
X108504976Y-115914502D02*
G01*
X108531217Y-115918394D01*
X108556950Y-115924840D01*
X108581927Y-115933777D01*
X108605908Y-115945119D01*
X108628662Y-115958757D01*
X108649969Y-115974560D01*
X108669625Y-115992375D01*
X108687440Y-116012031D01*
X108703243Y-116033338D01*
X108716881Y-116056092D01*
X108728223Y-116080073D01*
X108737160Y-116105050D01*
X108743606Y-116130783D01*
X108747498Y-116157024D01*
X108748800Y-116183520D01*
X108748800Y-116994480D01*
X108747498Y-117020976D01*
X108743606Y-117047217D01*
X108737160Y-117072950D01*
X108728223Y-117097927D01*
X108716881Y-117121908D01*
X108703243Y-117144662D01*
X108687440Y-117165969D01*
X108669625Y-117185625D01*
X108649969Y-117203440D01*
X108628662Y-117219243D01*
X108605908Y-117232881D01*
X108581927Y-117244223D01*
X108556950Y-117253160D01*
X108531217Y-117259606D01*
X108504976Y-117263498D01*
X108478480Y-117264800D01*
X107167520Y-117264800D01*
X107141024Y-117263498D01*
X107114783Y-117259606D01*
X107089050Y-117253160D01*
X107064073Y-117244223D01*
X107040092Y-117232881D01*
X107017338Y-117219243D01*
X106996031Y-117203440D01*
X106976375Y-117185625D01*
X106958560Y-117165969D01*
X106942757Y-117144662D01*
X106929119Y-117121908D01*
X106917777Y-117097927D01*
X106908840Y-117072950D01*
X106902394Y-117047217D01*
X106898502Y-117020976D01*
X106897200Y-116994480D01*
X106897200Y-116183520D01*
X106898502Y-116157024D01*
X106902394Y-116130783D01*
X106908840Y-116105050D01*
X106917777Y-116080073D01*
X106929119Y-116056092D01*
X106942757Y-116033338D01*
X106958560Y-116012031D01*
X106976375Y-115992375D01*
X106996031Y-115974560D01*
X107017338Y-115958757D01*
X107040092Y-115945119D01*
X107064073Y-115933777D01*
X107089050Y-115924840D01*
X107114783Y-115918394D01*
X107141024Y-115914502D01*
X107167520Y-115913200D01*
X108478480Y-115913200D01*
X108504976Y-115914502D01*
X108504976Y-115914502D01*
G37*
D17*
X107823000Y-116589000D03*
D18*
X137668000Y-142811600D03*
X56388000Y-142811600D03*
D19*
X131318000Y-127571600D03*
X132588000Y-136461600D03*
X117348000Y-127571600D03*
X118618000Y-136461600D03*
X103378000Y-127571600D03*
X104648000Y-136461600D03*
X89408000Y-127571600D03*
X90678000Y-136461600D03*
X75438000Y-127571600D03*
X76708000Y-136461600D03*
X61468000Y-127571600D03*
X62738000Y-136461600D03*
D20*
X140462000Y-147386600D03*
X139700000Y-136972600D03*
X140462000Y-131384600D03*
X53594000Y-127320600D03*
X54356000Y-133670600D03*
X53594000Y-147386600D03*
D19*
X127508000Y-130111600D03*
X136398000Y-133921600D03*
X113538000Y-130111600D03*
X122428000Y-133921600D03*
X99568000Y-130111600D03*
X108458000Y-133921600D03*
X85598000Y-130111600D03*
X94488000Y-133921600D03*
X71628000Y-130111600D03*
X80518000Y-133921600D03*
X57658000Y-130111600D03*
X66548000Y-133921600D03*
X135128000Y-130111600D03*
X128778000Y-133921600D03*
X121158000Y-130111600D03*
X114808000Y-133921600D03*
X107188000Y-130111600D03*
X100838000Y-133921600D03*
X93218000Y-130111600D03*
X86868000Y-133921600D03*
X79248000Y-130111600D03*
X72898000Y-133921600D03*
X65278000Y-130111600D03*
X58928000Y-133921600D03*
X136398000Y-127571600D03*
X127508000Y-136461600D03*
X122428000Y-127571600D03*
X113538000Y-136461600D03*
X108458000Y-127571600D03*
X99568000Y-136461600D03*
X94488000Y-127571600D03*
X85598000Y-136461600D03*
X80518000Y-127571600D03*
X71628000Y-136461600D03*
X66548000Y-127571600D03*
X57658000Y-136461600D03*
X133858000Y-127571600D03*
X130048000Y-136461600D03*
X119888000Y-127571600D03*
X116078000Y-136461600D03*
X105918000Y-127571600D03*
X102108000Y-136461600D03*
X91948000Y-127571600D03*
X88138000Y-136461600D03*
X77978000Y-127571600D03*
X74168000Y-136461600D03*
X64008000Y-127571600D03*
X60198000Y-136461600D03*
X130048000Y-130111600D03*
X133858000Y-133921600D03*
X116078000Y-130111600D03*
X119888000Y-133921600D03*
X102108000Y-130111600D03*
X105918000Y-133921600D03*
X88138000Y-130111600D03*
X91948000Y-133921600D03*
X74168000Y-130111600D03*
X77978000Y-133921600D03*
X60198000Y-130111600D03*
X64008000Y-133921600D03*
X132588000Y-130111600D03*
X131318000Y-133921600D03*
X118618000Y-130111600D03*
X117348000Y-133921600D03*
X104648000Y-130111600D03*
X103378000Y-133921600D03*
X90678000Y-130111600D03*
X89408000Y-133921600D03*
X76708000Y-130111600D03*
X75438000Y-133921600D03*
X62738000Y-130111600D03*
X61468000Y-133921600D03*
X128778000Y-127571600D03*
X135128000Y-136461600D03*
X114808000Y-127571600D03*
X121158000Y-136461600D03*
X100838000Y-127571600D03*
X107188000Y-136461600D03*
X86868000Y-127571600D03*
X93218000Y-136461600D03*
X72898000Y-127571600D03*
X79248000Y-136461600D03*
X58928000Y-127571600D03*
X65278000Y-136461600D03*
D21*
X93024000Y-97503000D03*
X92374000Y-97503000D03*
X91724000Y-97503000D03*
X91074000Y-97503000D03*
X90424000Y-97503000D03*
X89774000Y-97503000D03*
X89124000Y-97503000D03*
X88474000Y-97503000D03*
X87824000Y-97503000D03*
X93024000Y-102903000D03*
X92374000Y-102903000D03*
X91724000Y-102903000D03*
X91074000Y-102903000D03*
X90424000Y-102903000D03*
X89774000Y-102903000D03*
X89124000Y-102903000D03*
X88474000Y-102903000D03*
X87824000Y-102903000D03*
X102676000Y-100678000D03*
X102026000Y-100678000D03*
X101376000Y-100678000D03*
X100726000Y-100678000D03*
X100076000Y-100678000D03*
X99426000Y-100678000D03*
X98776000Y-100678000D03*
X98126000Y-100678000D03*
X97476000Y-100678000D03*
X102676000Y-106078000D03*
X102026000Y-106078000D03*
X101376000Y-106078000D03*
X100726000Y-106078000D03*
X100076000Y-106078000D03*
X99426000Y-106078000D03*
X98776000Y-106078000D03*
X98126000Y-106078000D03*
X97476000Y-106078000D03*
D22*
X107188000Y-121720000D03*
X107188000Y-96720000D03*
D21*
X83372000Y-94328000D03*
X82722000Y-94328000D03*
X82072000Y-94328000D03*
X81422000Y-94328000D03*
X80772000Y-94328000D03*
X80122000Y-94328000D03*
X79472000Y-94328000D03*
X78822000Y-94328000D03*
X78172000Y-94328000D03*
X83372000Y-99728000D03*
X82722000Y-99728000D03*
X82072000Y-99728000D03*
X81422000Y-99728000D03*
X80772000Y-99728000D03*
X80122000Y-99728000D03*
X79472000Y-99728000D03*
X78822000Y-99728000D03*
X78172000Y-99728000D03*
D22*
X55880000Y-121720000D03*
X55880000Y-96720000D03*
D10*
X68580000Y-117022000D03*
X68580000Y-108022000D03*
D11*
X62330000Y-115022000D03*
X74830000Y-115022000D03*
X74830000Y-110022000D03*
X62330000Y-110022000D03*
D23*
X110744000Y-116589000D03*
X110744000Y-113789000D03*
D24*
X120499000Y-117855000D03*
D25*
X114199000Y-120135000D03*
X114199000Y-115575000D03*
M02*
