M48
; DRILL file {KiCad (5.1.0-0)} date Friday, April 12, 2019 at 02:30:00 PM
; FORMAT={-:-/ absolute / inch / decimal}
; #@! TF.CreationDate,2019-04-12T14:30:00-04:00
; #@! TF.GenerationSoftware,Kicad,Pcbnew,(5.1.0-0)
; #@! TF.FileFunction,Plated,1,2,PTH
FMAT,2
INCH
T1C0.0157
T2C0.0354
T3C0.0394
T4C0.0472
T5C0.0630
%
G90
G05
T1
X2.23Y-5.435
X2.5203Y-4.0603
X2.565Y-4.09
X2.645Y-3.97
X2.8Y-4.12
X2.82Y-4.915
X2.84Y-3.84
X2.87Y-4.15
X2.875Y-5.535
X3.0Y-3.535
X3.07Y-4.18
X3.215Y-4.18
X3.2837Y-4.2503
X3.29Y-3.815
X3.32Y-4.425
X3.36Y-4.125
X3.39Y-3.74
X3.425Y-4.165
X3.445Y-5.595
X3.485Y-4.175
X3.53Y-4.2
X3.565Y-3.9
X3.57Y-4.445
X3.575Y-4.21
X3.58Y-3.52
X3.61Y-3.9
X3.6193Y-3.51
X3.63Y-4.185
X3.64Y-3.7957
X3.67Y-4.15
X3.67Y-3.4893
X3.7Y-4.11
X3.71Y-3.8
X3.72Y-3.4703
X3.77Y-4.64
X3.785Y-3.8
X3.795Y-4.185
X3.81Y-4.95
X3.815Y-4.565
X3.8444Y-3.9018
X3.845Y-4.2303
X3.85Y-4.66
X3.855Y-4.735
X3.8849Y-4.2295
X3.885Y-5.435
X3.885Y-3.89
X3.905Y-4.7287
X3.915Y-3.815
X3.94Y-3.9
X3.945Y-4.2503
X3.98Y-4.7
X3.985Y-3.875
X3.995Y-4.81
X3.9956Y-4.4244
X3.996Y-4.2503
X4.0081Y-4.3517
X4.0343Y-4.4143
X4.0477Y-4.3182
X4.0519Y-4.3591
X4.065Y-4.54
X4.0785Y-4.2565
X4.09Y-4.715
X4.09Y-4.79
X4.1185Y-4.2335
X4.155Y-4.49
X4.175Y-4.22
X4.1804Y-4.2831
X4.2Y-5.5
X4.215Y-4.22
X4.229Y-4.3213
X4.265Y-4.2217
X4.2705Y-4.3386
X4.2732Y-4.4047
X4.291Y-4.2488
X4.3143Y-4.54
X4.325Y-4.345
X4.3281Y-4.2543
X4.3732Y-4.4166
X4.385Y-4.2503
X4.41Y-4.665
X4.4247Y-4.4238
X4.435Y-5.435
X4.4515Y-4.3391
X4.47Y-4.675
X4.5Y-4.63
X4.51Y-4.9233
X4.53Y-3.59
X4.55Y-4.305
X4.56Y-3.62
X4.585Y-3.5643
X4.6Y-3.65
X4.6026Y-4.4574
X4.61Y-3.705
X4.62Y-4.95
X4.6397Y-3.8103
X4.64Y-4.3637
X4.6857Y-3.74
X4.6961Y-4.0339
X4.72Y-4.79
X4.7714Y-3.92
X4.78Y-3.69
X4.8Y-3.83
X4.8344Y-4.3864
X4.8412Y-4.4238
X4.8453Y-4.1703
X4.8476Y-4.2808
X4.8532Y-3.5407
X4.8743Y-4.0623
X4.875Y-3.71
X4.9Y-3.905
X4.915Y-3.505
X4.935Y-5.71
X4.9394Y-3.9394
X4.94Y-3.765
X4.9423Y-3.5385
X4.95Y-3.985
X4.955Y-4.035
X4.9643Y-4.515
X4.97Y-3.475
X4.97Y-5.075
X4.975Y-5.02
X4.9807Y-3.9
X4.985Y-5.435
X5.0Y-3.825
X5.005Y-3.645
X5.005Y-3.69
X5.0105Y-3.8719
X5.03Y-3.725
X5.0384Y-3.9163
X5.04Y-3.965
X5.04Y-4.0607
X5.07Y-3.66
X5.07Y-3.755
X5.08Y-3.805
X5.092Y-4.1445
X5.095Y-3.98
X5.1076Y-3.9179
X5.125Y-3.63
X5.125Y-3.76
X5.145Y-4.375
X5.15Y-3.57
X5.1591Y-3.9566
X5.16Y-3.82
X5.16Y-3.7323
X5.1707Y-4.1382
X5.19Y-3.475
X5.27Y-4.255
X5.275Y-3.85
X5.275Y-3.91
X5.275Y-3.95
X5.275Y-3.99
X5.28Y-3.43
X5.295Y-3.775
X5.34Y-4.2
X5.35Y-4.34
X5.38Y-4.13
X5.4Y-3.9995
X5.405Y-3.91
X5.45Y-3.915
X5.4655Y-5.32
X5.4735Y-3.98
X5.4775Y-3.8475
X5.4912Y-4.485
X5.4993Y-3.91
X5.525Y-3.83
X5.5257Y-4.3004
T2
X2.27Y-5.1225
X2.27Y-5.3725
X2.32Y-5.0225
X2.32Y-5.2725
X2.37Y-5.1225
X2.37Y-5.3725
X2.42Y-5.0225
X2.42Y-5.2725
X2.47Y-5.1225
X2.47Y-5.3725
X2.52Y-5.0225
X2.52Y-5.2725
X2.57Y-5.1225
X2.57Y-5.3725
X2.62Y-5.0225
X2.62Y-5.2725
X2.82Y-5.1225
X2.82Y-5.3725
X2.87Y-5.0225
X2.87Y-5.2725
X2.92Y-5.1225
X2.92Y-5.3725
X2.97Y-5.0225
X2.97Y-5.2725
X3.02Y-5.1225
X3.02Y-5.3725
X3.07Y-5.0225
X3.07Y-5.2725
X3.12Y-5.1225
X3.12Y-5.3725
X3.17Y-5.0225
X3.17Y-5.2725
X3.37Y-5.1225
X3.37Y-5.3725
X3.42Y-5.0225
X3.42Y-5.2725
X3.47Y-5.1225
X3.47Y-5.3725
X3.52Y-5.0225
X3.52Y-5.2725
X3.57Y-5.1225
X3.57Y-5.3725
X3.62Y-5.0225
X3.62Y-5.2725
X3.67Y-5.1225
X3.67Y-5.3725
X3.72Y-5.0225
X3.72Y-5.2725
X3.92Y-5.1225
X3.92Y-5.3725
X3.97Y-5.0225
X3.97Y-5.2725
X4.02Y-5.1225
X4.02Y-5.3725
X4.07Y-5.0225
X4.07Y-5.2725
X4.12Y-5.1225
X4.12Y-5.3725
X4.17Y-5.0225
X4.17Y-5.2725
X4.22Y-5.1225
X4.22Y-5.3725
X4.27Y-5.0225
X4.27Y-5.2725
X4.47Y-5.1225
X4.47Y-5.3725
X4.52Y-5.0225
X4.52Y-5.2725
X4.57Y-5.1225
X4.57Y-5.3725
X4.62Y-5.0225
X4.62Y-5.2725
X4.67Y-5.1225
X4.67Y-5.3725
X4.72Y-5.0225
X4.72Y-5.2725
X4.77Y-5.1225
X4.77Y-5.3725
X4.82Y-5.0225
X4.82Y-5.2725
X5.02Y-5.1225
X5.02Y-5.3725
X5.07Y-5.0225
X5.07Y-5.2725
X5.12Y-5.1225
X5.12Y-5.3725
X5.17Y-5.0225
X5.17Y-5.2725
X5.22Y-5.1225
X5.22Y-5.3725
X5.27Y-5.0225
X5.27Y-5.2725
X5.32Y-5.1225
X5.32Y-5.3725
X5.37Y-5.0225
X5.37Y-5.2725
T4
X2.4539Y-3.6316
X2.4539Y-3.8284
X2.9461Y-3.6316
X2.9461Y-3.8284
X2.4539Y-4.3316
X2.4539Y-4.5284
X2.9461Y-4.3316
X2.9461Y-4.5284
T5
X2.11Y-5.0126
X2.11Y-5.8026
X2.14Y-5.2626
X5.5Y-5.3926
X5.53Y-5.1726
X5.53Y-5.8026
T3
G00X5.075Y-4.6492
M15
G01X5.075Y-4.5508
M16
G05
G00X5.3112Y-4.6394
M15
G01X5.3112Y-4.5606
M16
G05
T0
M30
