G04 #@! TF.GenerationSoftware,KiCad,Pcbnew,(5.1.0-0)*
G04 #@! TF.CreationDate,2019-04-12T14:29:56-04:00*
G04 #@! TF.ProjectId,pyControl_DSeries,7079436f-6e74-4726-9f6c-5f4453657269,rev?*
G04 #@! TF.SameCoordinates,Original*
G04 #@! TF.FileFunction,Paste,Top*
G04 #@! TF.FilePolarity,Positive*
%FSLAX46Y46*%
G04 Gerber Fmt 4.6, Leading zero omitted, Abs format (unit mm)*
G04 Created by KiCad (PCBNEW (5.1.0-0)) date 2019-04-12 14:29:56*
%MOMM*%
%LPD*%
G04 APERTURE LIST*
%ADD10R,0.660000X0.230000*%
%ADD11R,0.660000X0.350000*%
%ADD12C,0.100000*%
%ADD13C,1.250000*%
%ADD14R,0.400000X1.000000*%
%ADD15R,1.100000X1.100000*%
%ADD16R,3.050000X2.750000*%
%ADD17R,2.200000X1.200000*%
G04 APERTURE END LIST*
D10*
X123021000Y-97660000D03*
X120311000Y-97260000D03*
X123021000Y-97260000D03*
X120311000Y-96860000D03*
D11*
X123021000Y-103335000D03*
X120311000Y-103335000D03*
X123021000Y-94785000D03*
X120311000Y-94785000D03*
D10*
X120311000Y-102860000D03*
X123021000Y-102860000D03*
X120311000Y-102460000D03*
X123021000Y-102460000D03*
X120311000Y-102060000D03*
X123021000Y-102060000D03*
X120311000Y-101660000D03*
X123021000Y-101660000D03*
X120311000Y-101260000D03*
X123021000Y-101260000D03*
X120311000Y-100860000D03*
X123021000Y-100860000D03*
X120311000Y-100460000D03*
X123021000Y-100460000D03*
X120311000Y-100060000D03*
X123021000Y-100060000D03*
X120311000Y-99660000D03*
X123021000Y-99660000D03*
X120311000Y-99260000D03*
X123021000Y-99260000D03*
X120311000Y-98860000D03*
X123021000Y-98860000D03*
X120311000Y-98460000D03*
X123021000Y-98460000D03*
X120311000Y-98060000D03*
X123021000Y-98060000D03*
X120311000Y-97660000D03*
X123021000Y-96860000D03*
X120311000Y-96460000D03*
X123021000Y-96460000D03*
X120311000Y-96060000D03*
X123021000Y-96060000D03*
X120311000Y-95660000D03*
X123021000Y-95660000D03*
X120311000Y-95260000D03*
X123021000Y-95260000D03*
X135721000Y-95260000D03*
X133011000Y-100460000D03*
X135721000Y-100860000D03*
X133011000Y-100860000D03*
X135721000Y-101260000D03*
X133011000Y-101260000D03*
X135721000Y-101660000D03*
X133011000Y-101660000D03*
X135721000Y-102060000D03*
X133011000Y-102060000D03*
X135721000Y-102460000D03*
X133011000Y-102460000D03*
X135721000Y-102860000D03*
X133011000Y-102860000D03*
D11*
X133011000Y-94785000D03*
X135721000Y-94785000D03*
D10*
X133011000Y-97260000D03*
X135721000Y-97660000D03*
X135721000Y-96860000D03*
X133011000Y-97660000D03*
X135721000Y-98060000D03*
X133011000Y-98060000D03*
X135721000Y-98460000D03*
X133011000Y-98460000D03*
X135721000Y-98860000D03*
X133011000Y-98860000D03*
X135721000Y-99260000D03*
X133011000Y-99260000D03*
X135721000Y-99660000D03*
X133011000Y-99660000D03*
X135721000Y-100060000D03*
X133011000Y-100060000D03*
X135721000Y-100460000D03*
X133011000Y-95260000D03*
X135721000Y-95660000D03*
X133011000Y-95660000D03*
X135721000Y-96060000D03*
X133011000Y-96060000D03*
X135721000Y-96460000D03*
X133011000Y-96460000D03*
D11*
X133011000Y-103335000D03*
X135721000Y-103335000D03*
D10*
X133011000Y-96860000D03*
X135721000Y-97260000D03*
D12*
G36*
X126506504Y-118877204D02*
G01*
X126530773Y-118880804D01*
X126554571Y-118886765D01*
X126577671Y-118895030D01*
X126599849Y-118905520D01*
X126620893Y-118918133D01*
X126640598Y-118932747D01*
X126658777Y-118949223D01*
X126675253Y-118967402D01*
X126689867Y-118987107D01*
X126702480Y-119008151D01*
X126712970Y-119030329D01*
X126721235Y-119053429D01*
X126727196Y-119077227D01*
X126730796Y-119101496D01*
X126732000Y-119126000D01*
X126732000Y-119876000D01*
X126730796Y-119900504D01*
X126727196Y-119924773D01*
X126721235Y-119948571D01*
X126712970Y-119971671D01*
X126702480Y-119993849D01*
X126689867Y-120014893D01*
X126675253Y-120034598D01*
X126658777Y-120052777D01*
X126640598Y-120069253D01*
X126620893Y-120083867D01*
X126599849Y-120096480D01*
X126577671Y-120106970D01*
X126554571Y-120115235D01*
X126530773Y-120121196D01*
X126506504Y-120124796D01*
X126482000Y-120126000D01*
X125232000Y-120126000D01*
X125207496Y-120124796D01*
X125183227Y-120121196D01*
X125159429Y-120115235D01*
X125136329Y-120106970D01*
X125114151Y-120096480D01*
X125093107Y-120083867D01*
X125073402Y-120069253D01*
X125055223Y-120052777D01*
X125038747Y-120034598D01*
X125024133Y-120014893D01*
X125011520Y-119993849D01*
X125001030Y-119971671D01*
X124992765Y-119948571D01*
X124986804Y-119924773D01*
X124983204Y-119900504D01*
X124982000Y-119876000D01*
X124982000Y-119126000D01*
X124983204Y-119101496D01*
X124986804Y-119077227D01*
X124992765Y-119053429D01*
X125001030Y-119030329D01*
X125011520Y-119008151D01*
X125024133Y-118987107D01*
X125038747Y-118967402D01*
X125055223Y-118949223D01*
X125073402Y-118932747D01*
X125093107Y-118918133D01*
X125114151Y-118905520D01*
X125136329Y-118895030D01*
X125159429Y-118886765D01*
X125183227Y-118880804D01*
X125207496Y-118877204D01*
X125232000Y-118876000D01*
X126482000Y-118876000D01*
X126506504Y-118877204D01*
X126506504Y-118877204D01*
G37*
D13*
X125857000Y-119501000D03*
D12*
G36*
X126506504Y-121677204D02*
G01*
X126530773Y-121680804D01*
X126554571Y-121686765D01*
X126577671Y-121695030D01*
X126599849Y-121705520D01*
X126620893Y-121718133D01*
X126640598Y-121732747D01*
X126658777Y-121749223D01*
X126675253Y-121767402D01*
X126689867Y-121787107D01*
X126702480Y-121808151D01*
X126712970Y-121830329D01*
X126721235Y-121853429D01*
X126727196Y-121877227D01*
X126730796Y-121901496D01*
X126732000Y-121926000D01*
X126732000Y-122676000D01*
X126730796Y-122700504D01*
X126727196Y-122724773D01*
X126721235Y-122748571D01*
X126712970Y-122771671D01*
X126702480Y-122793849D01*
X126689867Y-122814893D01*
X126675253Y-122834598D01*
X126658777Y-122852777D01*
X126640598Y-122869253D01*
X126620893Y-122883867D01*
X126599849Y-122896480D01*
X126577671Y-122906970D01*
X126554571Y-122915235D01*
X126530773Y-122921196D01*
X126506504Y-122924796D01*
X126482000Y-122926000D01*
X125232000Y-122926000D01*
X125207496Y-122924796D01*
X125183227Y-122921196D01*
X125159429Y-122915235D01*
X125136329Y-122906970D01*
X125114151Y-122896480D01*
X125093107Y-122883867D01*
X125073402Y-122869253D01*
X125055223Y-122852777D01*
X125038747Y-122834598D01*
X125024133Y-122814893D01*
X125011520Y-122793849D01*
X125001030Y-122771671D01*
X124992765Y-122748571D01*
X124986804Y-122724773D01*
X124983204Y-122700504D01*
X124982000Y-122676000D01*
X124982000Y-121926000D01*
X124983204Y-121901496D01*
X124986804Y-121877227D01*
X124992765Y-121853429D01*
X125001030Y-121830329D01*
X125011520Y-121808151D01*
X125024133Y-121787107D01*
X125038747Y-121767402D01*
X125055223Y-121749223D01*
X125073402Y-121732747D01*
X125093107Y-121718133D01*
X125114151Y-121705520D01*
X125136329Y-121695030D01*
X125159429Y-121686765D01*
X125183227Y-121680804D01*
X125207496Y-121677204D01*
X125232000Y-121676000D01*
X126482000Y-121676000D01*
X126506504Y-121677204D01*
X126506504Y-121677204D01*
G37*
D13*
X125857000Y-122301000D03*
D12*
G36*
X108472504Y-113165204D02*
G01*
X108496773Y-113168804D01*
X108520571Y-113174765D01*
X108543671Y-113183030D01*
X108565849Y-113193520D01*
X108586893Y-113206133D01*
X108606598Y-113220747D01*
X108624777Y-113237223D01*
X108641253Y-113255402D01*
X108655867Y-113275107D01*
X108668480Y-113296151D01*
X108678970Y-113318329D01*
X108687235Y-113341429D01*
X108693196Y-113365227D01*
X108696796Y-113389496D01*
X108698000Y-113414000D01*
X108698000Y-114164000D01*
X108696796Y-114188504D01*
X108693196Y-114212773D01*
X108687235Y-114236571D01*
X108678970Y-114259671D01*
X108668480Y-114281849D01*
X108655867Y-114302893D01*
X108641253Y-114322598D01*
X108624777Y-114340777D01*
X108606598Y-114357253D01*
X108586893Y-114371867D01*
X108565849Y-114384480D01*
X108543671Y-114394970D01*
X108520571Y-114403235D01*
X108496773Y-114409196D01*
X108472504Y-114412796D01*
X108448000Y-114414000D01*
X107198000Y-114414000D01*
X107173496Y-114412796D01*
X107149227Y-114409196D01*
X107125429Y-114403235D01*
X107102329Y-114394970D01*
X107080151Y-114384480D01*
X107059107Y-114371867D01*
X107039402Y-114357253D01*
X107021223Y-114340777D01*
X107004747Y-114322598D01*
X106990133Y-114302893D01*
X106977520Y-114281849D01*
X106967030Y-114259671D01*
X106958765Y-114236571D01*
X106952804Y-114212773D01*
X106949204Y-114188504D01*
X106948000Y-114164000D01*
X106948000Y-113414000D01*
X106949204Y-113389496D01*
X106952804Y-113365227D01*
X106958765Y-113341429D01*
X106967030Y-113318329D01*
X106977520Y-113296151D01*
X106990133Y-113275107D01*
X107004747Y-113255402D01*
X107021223Y-113237223D01*
X107039402Y-113220747D01*
X107059107Y-113206133D01*
X107080151Y-113193520D01*
X107102329Y-113183030D01*
X107125429Y-113174765D01*
X107149227Y-113168804D01*
X107173496Y-113165204D01*
X107198000Y-113164000D01*
X108448000Y-113164000D01*
X108472504Y-113165204D01*
X108472504Y-113165204D01*
G37*
D13*
X107823000Y-113789000D03*
D12*
G36*
X108472504Y-115965204D02*
G01*
X108496773Y-115968804D01*
X108520571Y-115974765D01*
X108543671Y-115983030D01*
X108565849Y-115993520D01*
X108586893Y-116006133D01*
X108606598Y-116020747D01*
X108624777Y-116037223D01*
X108641253Y-116055402D01*
X108655867Y-116075107D01*
X108668480Y-116096151D01*
X108678970Y-116118329D01*
X108687235Y-116141429D01*
X108693196Y-116165227D01*
X108696796Y-116189496D01*
X108698000Y-116214000D01*
X108698000Y-116964000D01*
X108696796Y-116988504D01*
X108693196Y-117012773D01*
X108687235Y-117036571D01*
X108678970Y-117059671D01*
X108668480Y-117081849D01*
X108655867Y-117102893D01*
X108641253Y-117122598D01*
X108624777Y-117140777D01*
X108606598Y-117157253D01*
X108586893Y-117171867D01*
X108565849Y-117184480D01*
X108543671Y-117194970D01*
X108520571Y-117203235D01*
X108496773Y-117209196D01*
X108472504Y-117212796D01*
X108448000Y-117214000D01*
X107198000Y-117214000D01*
X107173496Y-117212796D01*
X107149227Y-117209196D01*
X107125429Y-117203235D01*
X107102329Y-117194970D01*
X107080151Y-117184480D01*
X107059107Y-117171867D01*
X107039402Y-117157253D01*
X107021223Y-117140777D01*
X107004747Y-117122598D01*
X106990133Y-117102893D01*
X106977520Y-117081849D01*
X106967030Y-117059671D01*
X106958765Y-117036571D01*
X106952804Y-117012773D01*
X106949204Y-116988504D01*
X106948000Y-116964000D01*
X106948000Y-116214000D01*
X106949204Y-116189496D01*
X106952804Y-116165227D01*
X106958765Y-116141429D01*
X106967030Y-116118329D01*
X106977520Y-116096151D01*
X106990133Y-116075107D01*
X107004747Y-116055402D01*
X107021223Y-116037223D01*
X107039402Y-116020747D01*
X107059107Y-116006133D01*
X107080151Y-115993520D01*
X107102329Y-115983030D01*
X107125429Y-115974765D01*
X107149227Y-115968804D01*
X107173496Y-115965204D01*
X107198000Y-115964000D01*
X108448000Y-115964000D01*
X108472504Y-115965204D01*
X108472504Y-115965204D01*
G37*
D13*
X107823000Y-116589000D03*
D14*
X93024000Y-97503000D03*
X92374000Y-97503000D03*
X91724000Y-97503000D03*
X91074000Y-97503000D03*
X90424000Y-97503000D03*
X89774000Y-97503000D03*
X89124000Y-97503000D03*
X88474000Y-97503000D03*
X87824000Y-97503000D03*
X93024000Y-102903000D03*
X92374000Y-102903000D03*
X91724000Y-102903000D03*
X91074000Y-102903000D03*
X90424000Y-102903000D03*
X89774000Y-102903000D03*
X89124000Y-102903000D03*
X88474000Y-102903000D03*
X87824000Y-102903000D03*
X102676000Y-100678000D03*
X102026000Y-100678000D03*
X101376000Y-100678000D03*
X100726000Y-100678000D03*
X100076000Y-100678000D03*
X99426000Y-100678000D03*
X98776000Y-100678000D03*
X98126000Y-100678000D03*
X97476000Y-100678000D03*
X102676000Y-106078000D03*
X102026000Y-106078000D03*
X101376000Y-106078000D03*
X100726000Y-106078000D03*
X100076000Y-106078000D03*
X99426000Y-106078000D03*
X98776000Y-106078000D03*
X98126000Y-106078000D03*
X97476000Y-106078000D03*
X83372000Y-94328000D03*
X82722000Y-94328000D03*
X82072000Y-94328000D03*
X81422000Y-94328000D03*
X80772000Y-94328000D03*
X80122000Y-94328000D03*
X79472000Y-94328000D03*
X78822000Y-94328000D03*
X78172000Y-94328000D03*
X83372000Y-99728000D03*
X82722000Y-99728000D03*
X82072000Y-99728000D03*
X81422000Y-99728000D03*
X80772000Y-99728000D03*
X80122000Y-99728000D03*
X79472000Y-99728000D03*
X78822000Y-99728000D03*
X78172000Y-99728000D03*
D15*
X110744000Y-116589000D03*
X110744000Y-113789000D03*
D16*
X118824000Y-119380000D03*
X122174000Y-116330000D03*
X118824000Y-116330000D03*
X122174000Y-119380000D03*
D17*
X114199000Y-120135000D03*
X114199000Y-115575000D03*
M02*
