G04 #@! TF.GenerationSoftware,KiCad,Pcbnew,(5.1.0-0)*
G04 #@! TF.CreationDate,2019-04-12T14:29:56-04:00*
G04 #@! TF.ProjectId,pyControl_DSeries,7079436f-6e74-4726-9f6c-5f4453657269,rev?*
G04 #@! TF.SameCoordinates,Original*
G04 #@! TF.FileFunction,Legend,Top*
G04 #@! TF.FilePolarity,Positive*
%FSLAX46Y46*%
G04 Gerber Fmt 4.6, Leading zero omitted, Abs format (unit mm)*
G04 Created by KiCad (PCBNEW (5.1.0-0)) date 2019-04-12 14:29:56*
%MOMM*%
%LPD*%
G04 APERTURE LIST*
%ADD10C,0.444500*%
%ADD11C,0.304800*%
%ADD12C,0.127000*%
%ADD13C,0.400000*%
%ADD14C,0.120000*%
%ADD15C,0.150000*%
%ADD16C,0.142240*%
G04 APERTURE END LIST*
D10*
X78020333Y-88618785D02*
X78020333Y-90523785D01*
X78020333Y-88709500D02*
X78189666Y-88618785D01*
X78528333Y-88618785D01*
X78697666Y-88709500D01*
X78782333Y-88800214D01*
X78867000Y-88981642D01*
X78867000Y-89525928D01*
X78782333Y-89707357D01*
X78697666Y-89798071D01*
X78528333Y-89888785D01*
X78189666Y-89888785D01*
X78020333Y-89798071D01*
X79459666Y-88618785D02*
X79883000Y-89888785D01*
X80306333Y-88618785D02*
X79883000Y-89888785D01*
X79713666Y-90342357D01*
X79629000Y-90433071D01*
X79459666Y-90523785D01*
X81999666Y-89707357D02*
X81915000Y-89798071D01*
X81661000Y-89888785D01*
X81491666Y-89888785D01*
X81237666Y-89798071D01*
X81068333Y-89616642D01*
X80983666Y-89435214D01*
X80899000Y-89072357D01*
X80899000Y-88800214D01*
X80983666Y-88437357D01*
X81068333Y-88255928D01*
X81237666Y-88074500D01*
X81491666Y-87983785D01*
X81661000Y-87983785D01*
X81915000Y-88074500D01*
X81999666Y-88165214D01*
X83015666Y-89888785D02*
X82846333Y-89798071D01*
X82761666Y-89707357D01*
X82677000Y-89525928D01*
X82677000Y-88981642D01*
X82761666Y-88800214D01*
X82846333Y-88709500D01*
X83015666Y-88618785D01*
X83269666Y-88618785D01*
X83439000Y-88709500D01*
X83523666Y-88800214D01*
X83608333Y-88981642D01*
X83608333Y-89525928D01*
X83523666Y-89707357D01*
X83439000Y-89798071D01*
X83269666Y-89888785D01*
X83015666Y-89888785D01*
X84370333Y-88618785D02*
X84370333Y-89888785D01*
X84370333Y-88800214D02*
X84455000Y-88709500D01*
X84624333Y-88618785D01*
X84878333Y-88618785D01*
X85047666Y-88709500D01*
X85132333Y-88890928D01*
X85132333Y-89888785D01*
X85725000Y-88618785D02*
X86402333Y-88618785D01*
X85979000Y-87983785D02*
X85979000Y-89616642D01*
X86063666Y-89798071D01*
X86233000Y-89888785D01*
X86402333Y-89888785D01*
X86995000Y-89888785D02*
X86995000Y-88618785D01*
X86995000Y-88981642D02*
X87079666Y-88800214D01*
X87164333Y-88709500D01*
X87333666Y-88618785D01*
X87503000Y-88618785D01*
X88349666Y-89888785D02*
X88180333Y-89798071D01*
X88095666Y-89707357D01*
X88011000Y-89525928D01*
X88011000Y-88981642D01*
X88095666Y-88800214D01*
X88180333Y-88709500D01*
X88349666Y-88618785D01*
X88603666Y-88618785D01*
X88773000Y-88709500D01*
X88857666Y-88800214D01*
X88942333Y-88981642D01*
X88942333Y-89525928D01*
X88857666Y-89707357D01*
X88773000Y-89798071D01*
X88603666Y-89888785D01*
X88349666Y-89888785D01*
X89958333Y-89888785D02*
X89789000Y-89798071D01*
X89704333Y-89616642D01*
X89704333Y-87983785D01*
X91990333Y-89888785D02*
X91990333Y-87983785D01*
X92413666Y-87983785D01*
X92667666Y-88074500D01*
X92837000Y-88255928D01*
X92921666Y-88437357D01*
X93006333Y-88800214D01*
X93006333Y-89072357D01*
X92921666Y-89435214D01*
X92837000Y-89616642D01*
X92667666Y-89798071D01*
X92413666Y-89888785D01*
X91990333Y-89888785D01*
X93768333Y-89163071D02*
X95123000Y-89163071D01*
X95885000Y-89798071D02*
X96139000Y-89888785D01*
X96562333Y-89888785D01*
X96731666Y-89798071D01*
X96816333Y-89707357D01*
X96901000Y-89525928D01*
X96901000Y-89344500D01*
X96816333Y-89163071D01*
X96731666Y-89072357D01*
X96562333Y-88981642D01*
X96223666Y-88890928D01*
X96054333Y-88800214D01*
X95969666Y-88709500D01*
X95885000Y-88528071D01*
X95885000Y-88346642D01*
X95969666Y-88165214D01*
X96054333Y-88074500D01*
X96223666Y-87983785D01*
X96647000Y-87983785D01*
X96901000Y-88074500D01*
X98340333Y-89798071D02*
X98171000Y-89888785D01*
X97832333Y-89888785D01*
X97663000Y-89798071D01*
X97578333Y-89616642D01*
X97578333Y-88890928D01*
X97663000Y-88709500D01*
X97832333Y-88618785D01*
X98171000Y-88618785D01*
X98340333Y-88709500D01*
X98425000Y-88890928D01*
X98425000Y-89072357D01*
X97578333Y-89253785D01*
X99187000Y-89888785D02*
X99187000Y-88618785D01*
X99187000Y-88981642D02*
X99271666Y-88800214D01*
X99356333Y-88709500D01*
X99525666Y-88618785D01*
X99695000Y-88618785D01*
X100287666Y-89888785D02*
X100287666Y-88618785D01*
X100287666Y-87983785D02*
X100203000Y-88074500D01*
X100287666Y-88165214D01*
X100372333Y-88074500D01*
X100287666Y-87983785D01*
X100287666Y-88165214D01*
X101811666Y-89798071D02*
X101642333Y-89888785D01*
X101303666Y-89888785D01*
X101134333Y-89798071D01*
X101049666Y-89616642D01*
X101049666Y-88890928D01*
X101134333Y-88709500D01*
X101303666Y-88618785D01*
X101642333Y-88618785D01*
X101811666Y-88709500D01*
X101896333Y-88890928D01*
X101896333Y-89072357D01*
X101049666Y-89253785D01*
X102573666Y-89798071D02*
X102743000Y-89888785D01*
X103081666Y-89888785D01*
X103251000Y-89798071D01*
X103335666Y-89616642D01*
X103335666Y-89525928D01*
X103251000Y-89344500D01*
X103081666Y-89253785D01*
X102827666Y-89253785D01*
X102658333Y-89163071D01*
X102573666Y-88981642D01*
X102573666Y-88890928D01*
X102658333Y-88709500D01*
X102827666Y-88618785D01*
X103081666Y-88618785D01*
X103251000Y-88709500D01*
X106045000Y-88890928D02*
X106299000Y-88981642D01*
X106383666Y-89072357D01*
X106468333Y-89253785D01*
X106468333Y-89525928D01*
X106383666Y-89707357D01*
X106299000Y-89798071D01*
X106129666Y-89888785D01*
X105452333Y-89888785D01*
X105452333Y-87983785D01*
X106045000Y-87983785D01*
X106214333Y-88074500D01*
X106299000Y-88165214D01*
X106383666Y-88346642D01*
X106383666Y-88528071D01*
X106299000Y-88709500D01*
X106214333Y-88800214D01*
X106045000Y-88890928D01*
X105452333Y-88890928D01*
X107230333Y-89888785D02*
X107230333Y-88618785D01*
X107230333Y-88981642D02*
X107315000Y-88800214D01*
X107399666Y-88709500D01*
X107569000Y-88618785D01*
X107738333Y-88618785D01*
X109008333Y-89798071D02*
X108839000Y-89888785D01*
X108500333Y-89888785D01*
X108331000Y-89798071D01*
X108246333Y-89616642D01*
X108246333Y-88890928D01*
X108331000Y-88709500D01*
X108500333Y-88618785D01*
X108839000Y-88618785D01*
X109008333Y-88709500D01*
X109093000Y-88890928D01*
X109093000Y-89072357D01*
X108246333Y-89253785D01*
X110617000Y-89888785D02*
X110617000Y-88890928D01*
X110532333Y-88709500D01*
X110363000Y-88618785D01*
X110024333Y-88618785D01*
X109855000Y-88709500D01*
X110617000Y-89798071D02*
X110447666Y-89888785D01*
X110024333Y-89888785D01*
X109855000Y-89798071D01*
X109770333Y-89616642D01*
X109770333Y-89435214D01*
X109855000Y-89253785D01*
X110024333Y-89163071D01*
X110447666Y-89163071D01*
X110617000Y-89072357D01*
X111463666Y-89888785D02*
X111463666Y-87983785D01*
X111633000Y-89163071D02*
X112141000Y-89888785D01*
X112141000Y-88618785D02*
X111463666Y-89344500D01*
X113157000Y-89888785D02*
X112987666Y-89798071D01*
X112903000Y-89707357D01*
X112818333Y-89525928D01*
X112818333Y-88981642D01*
X112903000Y-88800214D01*
X112987666Y-88709500D01*
X113157000Y-88618785D01*
X113411000Y-88618785D01*
X113580333Y-88709500D01*
X113665000Y-88800214D01*
X113749666Y-88981642D01*
X113749666Y-89525928D01*
X113665000Y-89707357D01*
X113580333Y-89798071D01*
X113411000Y-89888785D01*
X113157000Y-89888785D01*
X115273666Y-88618785D02*
X115273666Y-89888785D01*
X114511666Y-88618785D02*
X114511666Y-89616642D01*
X114596333Y-89798071D01*
X114765666Y-89888785D01*
X115019666Y-89888785D01*
X115189000Y-89798071D01*
X115273666Y-89707357D01*
X115866333Y-88618785D02*
X116543666Y-88618785D01*
X116120333Y-87983785D02*
X116120333Y-89616642D01*
X116205000Y-89798071D01*
X116374333Y-89888785D01*
X116543666Y-89888785D01*
X96393000Y-93190785D02*
X95377000Y-93190785D01*
X95885000Y-93190785D02*
X95885000Y-91285785D01*
X95715666Y-91557928D01*
X95546333Y-91739357D01*
X95377000Y-91830071D01*
X97155000Y-93009357D02*
X97239666Y-93100071D01*
X97155000Y-93190785D01*
X97070333Y-93100071D01*
X97155000Y-93009357D01*
X97155000Y-93190785D01*
X98340333Y-91285785D02*
X98509666Y-91285785D01*
X98679000Y-91376500D01*
X98763666Y-91467214D01*
X98848333Y-91648642D01*
X98933000Y-92011500D01*
X98933000Y-92465071D01*
X98848333Y-92827928D01*
X98763666Y-93009357D01*
X98679000Y-93100071D01*
X98509666Y-93190785D01*
X98340333Y-93190785D01*
X98171000Y-93100071D01*
X98086333Y-93009357D01*
X98001666Y-92827928D01*
X97917000Y-92465071D01*
X97917000Y-92011500D01*
X98001666Y-91648642D01*
X98086333Y-91467214D01*
X98171000Y-91376500D01*
X98340333Y-91285785D01*
D11*
X66820142Y-88065428D02*
X66312142Y-87339714D01*
X65949285Y-88065428D02*
X65949285Y-86541428D01*
X66529857Y-86541428D01*
X66675000Y-86614000D01*
X66747571Y-86686571D01*
X66820142Y-86831714D01*
X66820142Y-87049428D01*
X66747571Y-87194571D01*
X66675000Y-87267142D01*
X66529857Y-87339714D01*
X65949285Y-87339714D01*
X68053857Y-87992857D02*
X67908714Y-88065428D01*
X67618428Y-88065428D01*
X67473285Y-87992857D01*
X67400714Y-87847714D01*
X67400714Y-87267142D01*
X67473285Y-87122000D01*
X67618428Y-87049428D01*
X67908714Y-87049428D01*
X68053857Y-87122000D01*
X68126428Y-87267142D01*
X68126428Y-87412285D01*
X67400714Y-87557428D01*
X68707000Y-87992857D02*
X68852142Y-88065428D01*
X69142428Y-88065428D01*
X69287571Y-87992857D01*
X69360142Y-87847714D01*
X69360142Y-87775142D01*
X69287571Y-87630000D01*
X69142428Y-87557428D01*
X68924714Y-87557428D01*
X68779571Y-87484857D01*
X68707000Y-87339714D01*
X68707000Y-87267142D01*
X68779571Y-87122000D01*
X68924714Y-87049428D01*
X69142428Y-87049428D01*
X69287571Y-87122000D01*
X70593857Y-87992857D02*
X70448714Y-88065428D01*
X70158428Y-88065428D01*
X70013285Y-87992857D01*
X69940714Y-87847714D01*
X69940714Y-87267142D01*
X70013285Y-87122000D01*
X70158428Y-87049428D01*
X70448714Y-87049428D01*
X70593857Y-87122000D01*
X70666428Y-87267142D01*
X70666428Y-87412285D01*
X69940714Y-87557428D01*
X71101857Y-87049428D02*
X71682428Y-87049428D01*
X71319571Y-86541428D02*
X71319571Y-87847714D01*
X71392142Y-87992857D01*
X71537285Y-88065428D01*
X71682428Y-88065428D01*
X66529857Y-104448428D02*
X66529857Y-105682142D01*
X66602428Y-105827285D01*
X66675000Y-105899857D01*
X66820142Y-105972428D01*
X67110428Y-105972428D01*
X67255571Y-105899857D01*
X67328142Y-105827285D01*
X67400714Y-105682142D01*
X67400714Y-104448428D01*
X68053857Y-105899857D02*
X68271571Y-105972428D01*
X68634428Y-105972428D01*
X68779571Y-105899857D01*
X68852142Y-105827285D01*
X68924714Y-105682142D01*
X68924714Y-105537000D01*
X68852142Y-105391857D01*
X68779571Y-105319285D01*
X68634428Y-105246714D01*
X68344142Y-105174142D01*
X68199000Y-105101571D01*
X68126428Y-105029000D01*
X68053857Y-104883857D01*
X68053857Y-104738714D01*
X68126428Y-104593571D01*
X68199000Y-104521000D01*
X68344142Y-104448428D01*
X68707000Y-104448428D01*
X68924714Y-104521000D01*
X70448714Y-105972428D02*
X69940714Y-105246714D01*
X69577857Y-105972428D02*
X69577857Y-104448428D01*
X70158428Y-104448428D01*
X70303571Y-104521000D01*
X70376142Y-104593571D01*
X70448714Y-104738714D01*
X70448714Y-104956428D01*
X70376142Y-105101571D01*
X70303571Y-105174142D01*
X70158428Y-105246714D01*
X69577857Y-105246714D01*
D12*
X120741000Y-103820000D02*
X122591000Y-103820000D01*
X122591000Y-94300000D02*
X120741000Y-94300000D01*
X133441000Y-103820000D02*
X135291000Y-103820000D01*
X135291000Y-94300000D02*
X133441000Y-94300000D01*
X142605000Y-112340000D02*
X142605000Y-121340000D01*
X142605000Y-121340000D02*
X128105000Y-121340000D01*
X128105000Y-121340000D02*
X128105000Y-119490000D01*
X128105000Y-112340000D02*
X142605000Y-112340000D01*
X128105000Y-114290000D02*
X128105000Y-112340000D01*
D13*
X127105000Y-116840000D02*
G75*
G03X127105000Y-116840000I-200000J0D01*
G01*
D14*
X126767000Y-121503064D02*
X126767000Y-120298936D01*
X124947000Y-121503064D02*
X124947000Y-120298936D01*
X108733000Y-115791064D02*
X108733000Y-114586936D01*
X106913000Y-115791064D02*
X106913000Y-114586936D01*
D12*
X53467000Y-151828600D02*
X140843000Y-151828600D01*
X140843000Y-152971600D02*
X53467000Y-152971600D01*
X140843000Y-151828600D02*
X140843000Y-152971600D01*
X140843000Y-123888600D02*
X140843000Y-151828600D01*
X53467000Y-123888600D02*
X140843000Y-123888600D01*
X53467000Y-151828600D02*
X53467000Y-123888600D01*
X53467000Y-152971600D02*
X53467000Y-151828600D01*
D14*
X93484000Y-97003000D02*
X93484000Y-97893000D01*
X93484000Y-97893000D02*
X93784000Y-97893000D01*
X93784000Y-97893000D02*
X93784000Y-102513000D01*
X93784000Y-102513000D02*
X93484000Y-102513000D01*
X87364000Y-97893000D02*
X87064000Y-97893000D01*
X87064000Y-97893000D02*
X87064000Y-102513000D01*
X87064000Y-102513000D02*
X87364000Y-102513000D01*
X103136000Y-100178000D02*
X103136000Y-101068000D01*
X103136000Y-101068000D02*
X103436000Y-101068000D01*
X103436000Y-101068000D02*
X103436000Y-105688000D01*
X103436000Y-105688000D02*
X103136000Y-105688000D01*
X97016000Y-101068000D02*
X96716000Y-101068000D01*
X96716000Y-101068000D02*
X96716000Y-105688000D01*
X96716000Y-105688000D02*
X97016000Y-105688000D01*
X83832000Y-93828000D02*
X83832000Y-94718000D01*
X83832000Y-94718000D02*
X84132000Y-94718000D01*
X84132000Y-94718000D02*
X84132000Y-99338000D01*
X84132000Y-99338000D02*
X83832000Y-99338000D01*
X77712000Y-94718000D02*
X77412000Y-94718000D01*
X77412000Y-94718000D02*
X77412000Y-99338000D01*
X77412000Y-99338000D02*
X77712000Y-99338000D01*
X111744000Y-112989000D02*
X111744000Y-116839000D01*
X109744000Y-112989000D02*
X109744000Y-116839000D01*
X111744000Y-112989000D02*
X109744000Y-112989000D01*
X115929000Y-121035000D02*
X114829000Y-121035000D01*
X115929000Y-121305000D02*
X115929000Y-121035000D01*
X117429000Y-121305000D02*
X115929000Y-121305000D01*
X115929000Y-114675000D02*
X113099000Y-114675000D01*
X115929000Y-114405000D02*
X115929000Y-114675000D01*
X117429000Y-114405000D02*
X115929000Y-114405000D01*
D15*
X67818095Y-95400761D02*
X67960952Y-95448380D01*
X68199047Y-95448380D01*
X68294285Y-95400761D01*
X68341904Y-95353142D01*
X68389523Y-95257904D01*
X68389523Y-95162666D01*
X68341904Y-95067428D01*
X68294285Y-95019809D01*
X68199047Y-94972190D01*
X68008571Y-94924571D01*
X67913333Y-94876952D01*
X67865714Y-94829333D01*
X67818095Y-94734095D01*
X67818095Y-94638857D01*
X67865714Y-94543619D01*
X67913333Y-94496000D01*
X68008571Y-94448380D01*
X68246666Y-94448380D01*
X68389523Y-94496000D01*
X69341904Y-95448380D02*
X68770476Y-95448380D01*
X69056190Y-95448380D02*
X69056190Y-94448380D01*
X68960952Y-94591238D01*
X68865714Y-94686476D01*
X68770476Y-94734095D01*
X127396095Y-97130380D02*
X127396095Y-97939904D01*
X127443714Y-98035142D01*
X127491333Y-98082761D01*
X127586571Y-98130380D01*
X127777047Y-98130380D01*
X127872285Y-98082761D01*
X127919904Y-98035142D01*
X127967523Y-97939904D01*
X127967523Y-97130380D01*
X128967523Y-98130380D02*
X128396095Y-98130380D01*
X128681809Y-98130380D02*
X128681809Y-97130380D01*
X128586571Y-97273238D01*
X128491333Y-97368476D01*
X128396095Y-97416095D01*
X126579380Y-113236333D02*
X127293666Y-113236333D01*
X127436523Y-113283952D01*
X127531761Y-113379190D01*
X127579380Y-113522047D01*
X127579380Y-113617285D01*
X127579380Y-112236333D02*
X127579380Y-112807761D01*
X127579380Y-112522047D02*
X126579380Y-112522047D01*
X126722238Y-112617285D01*
X126817476Y-112712523D01*
X126865095Y-112807761D01*
X124394142Y-122467666D02*
X124441761Y-122515285D01*
X124489380Y-122658142D01*
X124489380Y-122753380D01*
X124441761Y-122896238D01*
X124346523Y-122991476D01*
X124251285Y-123039095D01*
X124060809Y-123086714D01*
X123917952Y-123086714D01*
X123727476Y-123039095D01*
X123632238Y-122991476D01*
X123537000Y-122896238D01*
X123489380Y-122753380D01*
X123489380Y-122658142D01*
X123537000Y-122515285D01*
X123584619Y-122467666D01*
X123584619Y-122086714D02*
X123537000Y-122039095D01*
X123489380Y-121943857D01*
X123489380Y-121705761D01*
X123537000Y-121610523D01*
X123584619Y-121562904D01*
X123679857Y-121515285D01*
X123775095Y-121515285D01*
X123917952Y-121562904D01*
X124489380Y-122134333D01*
X124489380Y-121515285D01*
X106360142Y-115355666D02*
X106407761Y-115403285D01*
X106455380Y-115546142D01*
X106455380Y-115641380D01*
X106407761Y-115784238D01*
X106312523Y-115879476D01*
X106217285Y-115927095D01*
X106026809Y-115974714D01*
X105883952Y-115974714D01*
X105693476Y-115927095D01*
X105598238Y-115879476D01*
X105503000Y-115784238D01*
X105455380Y-115641380D01*
X105455380Y-115546142D01*
X105503000Y-115403285D01*
X105550619Y-115355666D01*
X106455380Y-114403285D02*
X106455380Y-114974714D01*
X106455380Y-114689000D02*
X105455380Y-114689000D01*
X105598238Y-114784238D01*
X105693476Y-114879476D01*
X105741095Y-114974714D01*
D16*
X59905222Y-121270466D02*
X59905222Y-122476966D01*
X59824789Y-122718266D01*
X59663922Y-122879133D01*
X59422622Y-122959566D01*
X59261756Y-122959566D01*
X60629122Y-121431333D02*
X60709556Y-121350900D01*
X60870422Y-121270466D01*
X61272589Y-121270466D01*
X61433456Y-121350900D01*
X61513889Y-121431333D01*
X61594322Y-121592200D01*
X61594322Y-121753066D01*
X61513889Y-121994366D01*
X60548689Y-122959566D01*
X61594322Y-122959566D01*
D15*
X94076380Y-100964904D02*
X94885904Y-100964904D01*
X94981142Y-100917285D01*
X95028761Y-100869666D01*
X95076380Y-100774428D01*
X95076380Y-100583952D01*
X95028761Y-100488714D01*
X94981142Y-100441095D01*
X94885904Y-100393476D01*
X94076380Y-100393476D01*
X94409714Y-99488714D02*
X95076380Y-99488714D01*
X94028761Y-99726809D02*
X94743047Y-99964904D01*
X94743047Y-99345857D01*
X103728380Y-104139904D02*
X104537904Y-104139904D01*
X104633142Y-104092285D01*
X104680761Y-104044666D01*
X104728380Y-103949428D01*
X104728380Y-103758952D01*
X104680761Y-103663714D01*
X104633142Y-103616095D01*
X104537904Y-103568476D01*
X103728380Y-103568476D01*
X103728380Y-102616095D02*
X103728380Y-103092285D01*
X104204571Y-103139904D01*
X104156952Y-103092285D01*
X104109333Y-102997047D01*
X104109333Y-102758952D01*
X104156952Y-102663714D01*
X104204571Y-102616095D01*
X104299809Y-102568476D01*
X104537904Y-102568476D01*
X104633142Y-102616095D01*
X104680761Y-102663714D01*
X104728380Y-102758952D01*
X104728380Y-102997047D01*
X104680761Y-103092285D01*
X104633142Y-103139904D01*
X84424380Y-97789904D02*
X85233904Y-97789904D01*
X85329142Y-97742285D01*
X85376761Y-97694666D01*
X85424380Y-97599428D01*
X85424380Y-97408952D01*
X85376761Y-97313714D01*
X85329142Y-97266095D01*
X85233904Y-97218476D01*
X84424380Y-97218476D01*
X84424380Y-96837523D02*
X84424380Y-96218476D01*
X84805333Y-96551809D01*
X84805333Y-96408952D01*
X84852952Y-96313714D01*
X84900571Y-96266095D01*
X84995809Y-96218476D01*
X85233904Y-96218476D01*
X85329142Y-96266095D01*
X85376761Y-96313714D01*
X85424380Y-96408952D01*
X85424380Y-96694666D01*
X85376761Y-96789904D01*
X85329142Y-96837523D01*
X67818095Y-112926761D02*
X67960952Y-112974380D01*
X68199047Y-112974380D01*
X68294285Y-112926761D01*
X68341904Y-112879142D01*
X68389523Y-112783904D01*
X68389523Y-112688666D01*
X68341904Y-112593428D01*
X68294285Y-112545809D01*
X68199047Y-112498190D01*
X68008571Y-112450571D01*
X67913333Y-112402952D01*
X67865714Y-112355333D01*
X67818095Y-112260095D01*
X67818095Y-112164857D01*
X67865714Y-112069619D01*
X67913333Y-112022000D01*
X68008571Y-111974380D01*
X68246666Y-111974380D01*
X68389523Y-112022000D01*
X68770476Y-112069619D02*
X68818095Y-112022000D01*
X68913333Y-111974380D01*
X69151428Y-111974380D01*
X69246666Y-112022000D01*
X69294285Y-112069619D01*
X69341904Y-112164857D01*
X69341904Y-112260095D01*
X69294285Y-112402952D01*
X68722857Y-112974380D01*
X69341904Y-112974380D01*
X110005904Y-118689380D02*
X110005904Y-117689380D01*
X110244000Y-117689380D01*
X110386857Y-117737000D01*
X110482095Y-117832238D01*
X110529714Y-117927476D01*
X110577333Y-118117952D01*
X110577333Y-118260809D01*
X110529714Y-118451285D01*
X110482095Y-118546523D01*
X110386857Y-118641761D01*
X110244000Y-118689380D01*
X110005904Y-118689380D01*
X111529714Y-118689380D02*
X110958285Y-118689380D01*
X111244000Y-118689380D02*
X111244000Y-117689380D01*
X111148761Y-117832238D01*
X111053523Y-117927476D01*
X110958285Y-117975095D01*
X124420380Y-117855904D02*
X125229904Y-117855904D01*
X125325142Y-117808285D01*
X125372761Y-117760666D01*
X125420380Y-117665428D01*
X125420380Y-117474952D01*
X125372761Y-117379714D01*
X125325142Y-117332095D01*
X125229904Y-117284476D01*
X124420380Y-117284476D01*
X124515619Y-116855904D02*
X124468000Y-116808285D01*
X124420380Y-116713047D01*
X124420380Y-116474952D01*
X124468000Y-116379714D01*
X124515619Y-116332095D01*
X124610857Y-116284476D01*
X124706095Y-116284476D01*
X124848952Y-116332095D01*
X125420380Y-116903523D01*
X125420380Y-116284476D01*
M02*
