G04 #@! TF.GenerationSoftware,KiCad,Pcbnew,(5.1.0-0)*
G04 #@! TF.CreationDate,2019-04-12T14:29:56-04:00*
G04 #@! TF.ProjectId,pyControl_DSeries,7079436f-6e74-4726-9f6c-5f4453657269,rev?*
G04 #@! TF.SameCoordinates,Original*
G04 #@! TF.FileFunction,Soldermask,Bot*
G04 #@! TF.FilePolarity,Negative*
%FSLAX46Y46*%
G04 Gerber Fmt 4.6, Leading zero omitted, Abs format (unit mm)*
G04 Created by KiCad (PCBNEW (5.1.0-0)) date 2019-04-12 14:29:56*
%MOMM*%
%LPD*%
G04 APERTURE LIST*
%ADD10C,1.901600*%
%ADD11C,1.701600*%
%ADD12O,2.601600X5.101600*%
%ADD13O,2.351600X4.601600*%
%ADD14C,3.301600*%
%ADD15C,1.501600*%
%ADD16C,2.032000*%
%ADD17C,3.101600*%
G04 APERTURE END LIST*
D10*
X68580000Y-99242000D03*
X68580000Y-90242000D03*
D11*
X62330000Y-97242000D03*
X74830000Y-97242000D03*
X74830000Y-92242000D03*
X62330000Y-92242000D03*
D12*
X128905000Y-116840000D03*
D13*
X134905000Y-116840000D03*
D14*
X137668000Y-142811600D03*
X56388000Y-142811600D03*
D15*
X131318000Y-127571600D03*
X132588000Y-136461600D03*
X117348000Y-127571600D03*
X118618000Y-136461600D03*
X103378000Y-127571600D03*
X104648000Y-136461600D03*
X89408000Y-127571600D03*
X90678000Y-136461600D03*
X75438000Y-127571600D03*
X76708000Y-136461600D03*
X61468000Y-127571600D03*
X62738000Y-136461600D03*
D16*
X140462000Y-147386600D03*
X139700000Y-136972600D03*
X140462000Y-131384600D03*
X53594000Y-127320600D03*
X54356000Y-133670600D03*
X53594000Y-147386600D03*
D15*
X127508000Y-130111600D03*
X136398000Y-133921600D03*
X113538000Y-130111600D03*
X122428000Y-133921600D03*
X99568000Y-130111600D03*
X108458000Y-133921600D03*
X85598000Y-130111600D03*
X94488000Y-133921600D03*
X71628000Y-130111600D03*
X80518000Y-133921600D03*
X57658000Y-130111600D03*
X66548000Y-133921600D03*
X135128000Y-130111600D03*
X128778000Y-133921600D03*
X121158000Y-130111600D03*
X114808000Y-133921600D03*
X107188000Y-130111600D03*
X100838000Y-133921600D03*
X93218000Y-130111600D03*
X86868000Y-133921600D03*
X79248000Y-130111600D03*
X72898000Y-133921600D03*
X65278000Y-130111600D03*
X58928000Y-133921600D03*
X136398000Y-127571600D03*
X127508000Y-136461600D03*
X122428000Y-127571600D03*
X113538000Y-136461600D03*
X108458000Y-127571600D03*
X99568000Y-136461600D03*
X94488000Y-127571600D03*
X85598000Y-136461600D03*
X80518000Y-127571600D03*
X71628000Y-136461600D03*
X66548000Y-127571600D03*
X57658000Y-136461600D03*
X133858000Y-127571600D03*
X130048000Y-136461600D03*
X119888000Y-127571600D03*
X116078000Y-136461600D03*
X105918000Y-127571600D03*
X102108000Y-136461600D03*
X91948000Y-127571600D03*
X88138000Y-136461600D03*
X77978000Y-127571600D03*
X74168000Y-136461600D03*
X64008000Y-127571600D03*
X60198000Y-136461600D03*
X130048000Y-130111600D03*
X133858000Y-133921600D03*
X116078000Y-130111600D03*
X119888000Y-133921600D03*
X102108000Y-130111600D03*
X105918000Y-133921600D03*
X88138000Y-130111600D03*
X91948000Y-133921600D03*
X74168000Y-130111600D03*
X77978000Y-133921600D03*
X60198000Y-130111600D03*
X64008000Y-133921600D03*
X132588000Y-130111600D03*
X131318000Y-133921600D03*
X118618000Y-130111600D03*
X117348000Y-133921600D03*
X104648000Y-130111600D03*
X103378000Y-133921600D03*
X90678000Y-130111600D03*
X89408000Y-133921600D03*
X76708000Y-130111600D03*
X75438000Y-133921600D03*
X62738000Y-130111600D03*
X61468000Y-133921600D03*
X128778000Y-127571600D03*
X135128000Y-136461600D03*
X114808000Y-127571600D03*
X121158000Y-136461600D03*
X100838000Y-127571600D03*
X107188000Y-136461600D03*
X86868000Y-127571600D03*
X93218000Y-136461600D03*
X72898000Y-127571600D03*
X79248000Y-136461600D03*
X58928000Y-127571600D03*
X65278000Y-136461600D03*
D17*
X107188000Y-121720000D03*
X107188000Y-96720000D03*
X55880000Y-121720000D03*
X55880000Y-96720000D03*
D10*
X68580000Y-117022000D03*
X68580000Y-108022000D03*
D11*
X62330000Y-115022000D03*
X74830000Y-115022000D03*
X74830000Y-110022000D03*
X62330000Y-110022000D03*
M02*
